# xmcd CD database file
#
# Track frame offsets:
#	150
#	7783
#	27680
#	47238
#	67403
#	91555
#	102055
#	126483
#	148743
#	171523
#	192918
#
# Disc length: 2923 seconds
#
# Revision: 0
# Processed by: cddbd v1.5.1PL0 Copyright (c) Steve Scherf et al.
# Submitted via: CDex 1.51
#
DISCID=9d0b690b
DTITLE=折原みと - ティーンズハートコレクション?
DYEAR=1996
DGENRE=Pop
TTITLE0=ANGEL・TEAR（インストゥルメンタル）
TTITLE1=OVER THE SKY〜時の輝き・2〜
TTITLE2=紅の花炎姫〜紅の花炎姫〜
TTITLE3=１７の途中で僕は風になる〜時の輝き〜
TTITLE4=あの夏に・・・〜あの夏に・・・〜
TTITLE5=WITH YOU〜君と夢をみた〜
TTITLE6=Ocean Blue〜海へ還る日〜
TTITLE7=Original Life〜君と夢をみた〜
TTITLE8=尊きもののために〜青の月光王〜
TTITLE9=True Blue〜地球−「箱舟の惑星」〜
TTITLE10=永遠のバージンロード〜永遠のみえる日〜
EXTD=YEAR: 1996
EXTT0=
EXTT1=
EXTT2=
EXTT3=
EXTT4=
EXTT5=
EXTT6=
EXTT7=
EXTT8=
EXTT9=
EXTT10=
PLAYORDER=
